<?xml version="1.0" encoding="utf-8"?>
<!-- Generator: Adobe Illustrator 24.0.3, SVG Export Plug-In . SVG Version: 6.00 Build 0)  -->
<svg version="1.1" id="Layer_1" xmlns="http://www.w3.org/2000/svg" xmlns:xlink="http://www.w3.org/1999/xlink" x="0px" y="0px"
	 viewBox="0 0 797.5 814.6" style="enable-background:new 0 0 797.5 814.6;" xml:space="preserve">
<style type="text/css">
	.st0{fill:#EFF3F9;}
	.st1{fill:#C5CCD6;}
	.st2{fill:#DE8E68;}
	.st3{fill:#0066BA;}
	.st4{fill:#0061F2;}
	.st5{fill:#D37C59;}
	.st6{fill:#6900C7;}
	.st7{fill:#770EE5;}
	.st8{fill:#DC8E6C;}
</style>
<title>error-404-colour</title>
<g id="Layer_2_1_">
	<g id="vector">
		<path class="st0" d="M582.1,94.7c45,40.4,74.5,96.8,121.7,177.9c47.5,81.1,113,186.8,88.2,249.9s-140.5,83.4-249.6,124.7
			s-211.9,103.5-306.5,91.3S55,640.1,33.3,544.6c-21.9-95.7,20.5-200.5,51.2-296C114.8,153.1,133.3,67,186.5,28
			S327.7-2.6,402.1,13.6C476.6,30,537.1,54.2,582.1,94.7z"/>
		<path class="st1" d="M171.1,774.8h-31.3v37.1H93.9v-37.1H0v-14l108.5-148.3h31.3v122.8h31.3V774.8z M93.9,735.3v-46.2l-32.8,46.2
			H93.9z"/>
		<path class="st1" d="M197.2,712.5c0-57.4,16.7-102.7,75-102.7c58,0,74.1,45.3,74.1,102.7c0,57.1-16.1,102.1-74.1,102.1
			C213.9,814.6,197.2,769.6,197.2,712.5z M300.5,712.5c0-34.6-6.7-61.4-28.3-61.4c-21.9,0-29.5,26.7-29.5,61.4
			c0,34.3,7.6,60.5,29.5,60.5C293.8,773,300.5,746.8,300.5,712.5L300.5,712.5z"/>
		<path class="st1" d="M535.1,774.8h-31.3v37.1h-45.9v-37.1H364v-14l108.5-148.3h31.3v122.8h31.3V774.8z M457.9,735.3v-46.2
			l-32.8,46.2H457.9z"/>
		<rect x="536.7" y="761.3" class="st2" width="17" height="14.4"/>
		<polygon points="555.3,773.5 555.3,787.8 514.9,787.8 514.9,782.6 535.9,773.5 		"/>
		<rect x="272.3" y="584.6" class="st2" width="17" height="14.4"/>
		<polygon points="291,596.8 291,611.2 250.5,611.2 250.5,606 271.5,596.8 		"/>
		<path class="st3" d="M536.2,404.2c0.9,8.2,18.9,360.9,18.9,360.9h-18.9L444.1,433L536.2,404.2z"/>
		<path class="st4" d="M545.9,365.4c0,47.9-17.6,91-53.3,91c-48.9,0-113.7-31.2-131.6-48.8c-4.5,13.2-67.6,178.9-67.6,178.9h-26.1
			c0,0,16.8-193,48.1-242.5c10.3-13.8,94.6-10.3,137.2,0S545.9,365.4,545.9,365.4z"/>
		<path class="st5" d="M419.5,86.3c0.6-3.1,3.4-5.2,6.5-4.9c3.8,0.3,10.1,10.4,10.1,18.6s-2.3,11.3-1.6,17.2s15.9,86.6,15.9,91.6
			c3.8,0.3,17.5-1.6,17.5-1.6l-9.6,38.5h-27.9l-18-155.2L419.5,86.3z"/>
		<path d="M446.2,100l-5.9,23.7c0,0-57.9-6.7-64.2-8.3s3.2-40.8,9.7-39.2S446.2,100,446.2,100z"/>
		<path class="st6" d="M499.2,170.2c74.1,0,55.8,191.4,47.2,198.6s-100.8-17-108.4-27.7S444.9,170.2,499.2,170.2z"/>
		<path class="st2" d="M472.8,218.8c-4.1,1.4-27.9,10.7-27.9,10.7c-0.4-4.8-18.8-100-19.9-105.8c2.3-5.8,3.5-12,3.4-18.3
			c0-15.6-6.3-28.3-14.2-28.3S400,89.7,400,105.3c-0.1,6.5,1.1,13,3.7,19.1c-0.9,11.9-8.8,124.9,7.3,141c17,17,58.3,1.7,83.4-9.8
			C499.9,253.8,492.5,213.4,472.8,218.8z"/>
		<rect x="440.8" y="105.3" transform="matrix(0.2566 -0.9665 0.9665 0.2566 222.4316 515.2849)" width="10.8" height="15.5"/>
		<path class="st7" d="M546.5,205.3c11.3,21.9-33.4,61.4-45.8,58.5s-32.3-47.1-28.6-55S535.5,184,546.5,205.3z"/>
		<path class="st5" d="M503.8,188.7c0,3.7-22.6,4.6-22.6,0V146h22.6V188.7z"/>
		<ellipse class="st8" cx="484.3" cy="123" rx="29.5" ry="47.8"/>
		<path d="M462.2,91.4c-0.5,7,2.9,13.7,8.8,17.5c8.8,6,15.1,3.3,21.5,9c3.4,3.4,11.8,10,11.8,20.2c0,7.5,2.5,11.3,4.6,11.3
			s7.9-1.5,11.6-1.5c36.1,0,78.6,37.3,160,37.3c42.5,0,109.3-10.7,109.3-73.2c0-33.7-12.1-74.5-76.3-74.5c-40.8,0-69.3,20-102.8,20
			c-43,0-59.6-15.6-89.3-15.6c-21.2,0-68.8,12.3-68.8,44.4c0,12.2,3.8,15.7,5,16.4C458,101.4,460.3,94.4,462.2,91.4z"/>
		<circle class="st8" cx="501.3" cy="134.3" r="7.5"/>
	</g>
</g>
</svg>
