<?xml version="1.0" encoding="utf-8"?>
<!-- Generator: Adobe Illustrator 24.0.3, SVG Export Plug-In . SVG Version: 6.00 Build 0)  -->
<svg version="1.1" id="Layer_1" xmlns="http://www.w3.org/2000/svg" xmlns:xlink="http://www.w3.org/1999/xlink" x="0px" y="0px"
	 viewBox="0 0 900 900" style="enable-background:new 0 0 900 900;" xml:space="preserve">
<style type="text/css">
	.st0{fill:none;stroke:#DFDFDF;stroke-width:80;stroke-miterlimit:10;}
	.st1{fill:#E49D75;}
	.st2{fill:#0061F2;}
	.st3{opacity:0.27;enable-background:new    ;}
	.st4{fill:#207DED;}
	.st5{fill:#F4A100;}
	.st6{fill:#D18C65;}
	.st7{fill:#F9B95A;}
	.st8{fill:#FFC88E;}
	.st9{fill:none;stroke:#9D9D9D;stroke-width:5.79;stroke-linecap:round;stroke-linejoin:round;}
</style>
<title>drawkit-developer-woman</title>
<path d="M330.2,75.1c16.5,0.9,40.2,14,40.2,36.9s-23.8,31.9-45.3,35.6c14.5,17.3,20.5,20.7,19,28.1s-14.9,27.9-16,51.4
	s-64.8,152.5-76.9,156.3s11.7,27.6-71.7,30.3c-22.2,0-62.6-33-62.6-76c-1-93.7,96.4-111.5,150.6-216.1
	C292.4,73.5,322.5,74.7,330.2,75.1z"/>
<path class="st0" d="M293.3,516.5h231.3c47.7,0,86.3,38.7,86.3,86.3v62.8c0,47.7-38.7,86.3-86.3,86.3H293.3
	c-47.7,0-86.3-38.7-86.3-86.3v-62.8C207,555.2,245.7,516.5,293.3,516.5z"/>
<path class="st1" d="M532.6,599.3l20.2-11.7l14.3,24.8l-20.2,11.7L532.6,599.3z"/>
<path class="st1" d="M381.9,646.3l21.1,10.1l-12.3,25.8l-21.1-10.1L381.9,646.3z"/>
<path class="st2" d="M499.1,427.3c20.5,0,50.7,122.8,63.6,158.9c-2.7,7.5-18.1,19.3-26.5,19.3c-16.3-27.3-52.8-85.8-59.2-94.8
	C471.8,503.4,478.6,427.3,499.1,427.3z"/>
<path class="st3" d="M491.4,184.8c3.5-2.2,1.9-0.7,4.6-4.8"/>
<path class="st4" d="M264,404.7c-17.8,0-32.4-3.8-32.4,38s45.7,76.7,99.9,76.7s78.2-1.4,83.1-2.6c1.5,13.8-30.5,108.6-33.9,133
	c2.5,6.5,18.3,14.6,25,14.6s95.8-144.8,93.5-234.3c0.3-14-51.2-17.9-83.7-17.9S313.6,416,304.9,416"/>
<path class="st5" d="M237.8,408.8c-2.3-9.3-14.4-209.4,58.6-205.8s72.3,181.9,64,210C327.1,427.1,240.2,418.6,237.8,408.8z"/>
<path class="st6" d="M321.1,187.1c-1.1,2.7-7.4,17.3-8.5,23.2s-32.6-1.6-30.8-4.5c10.4-17.6,12.1-36,13.8-45.2
	C297.1,152.1,328.7,169,321.1,187.1z"/>
<path class="st1" d="M312.1,304.7l-45.1,4.8c-3.1,3.8-1.7,12.7-1.8,17.3c-0.2,17,0.6,36,10.8,50.3c4,5.6,10.5,11,17,10.9
	c10.1,4,27,8.6,27,8.6l25.6,5.6c0,0,43.1,7.6,64.4,7.1c7.1-0.2,14.3-1,21.4-0.8c4.1,0.1,10.6,1.4,14.5,0c1.1-0.4,0.9-2.9,0.6-3.9
	c-0.9-3.4-4.2-5.8-7.1-7.2c-6.9-3.4-10.8-1.3-17.9-1.1c-5.8,0.1-12.7-2.9-22.8-6.8c-11.9-4.7-25.5-10.4-37.6-14.4
	c-13.8-4.6-27.9-9.7-41.4-15.2c-2.7-1.1-5.5-1.9-8.3-2.8c1.3-7.3,2-14.6,2.2-22c0.3-8,0.4-16.4-0.7-24.3
	C312.4,308.9,312.9,306.5,312.1,304.7z"/>
<path class="st7" d="M255,310.7c-7.7-20.4-1-84.1,23.9-88.2c34.6-5.1,45,75.3,41.6,84.8C314.3,310.9,280,323,255,310.7z"/>
<path class="st1" d="M358.1,118.4c-18.6,17.8-43.1,28-68.9,28.8c-1.2,1.5-1.8,3.4-1.9,5.3c0,4.4,3.3,8.2,7.7,8.9
	c2.2,13.6,9.4,24.3,20.1,27.5c17,5.2,36.4-10.8,43.3-35.6C361.9,140.7,361.5,128.3,358.1,118.4z"/>
<path class="st8" d="M384.6,410.7c18,0,83-0.5,94.9-0.5"/>
<path class="st9" d="M373.5,411.6c19,0,84.6-1.5,95.5-1.5c8.4-13,47.6-81.5,50.2-86.7"/>
<path d="M372.7,665.8L359,692.1l69.8,36.5l3.9-7.4l-34.6-42L372.7,665.8z"/>
<path d="M542.7,617.5l15.2,25.4l67.5-40.6l-4.3-7.2l-53.9,7.6L542.7,617.5z"/>
</svg>
