<?xml version="1.0" encoding="utf-8"?>
<!-- Generator: Adobe Illustrator 24.0.2, SVG Export Plug-In . SVG Version: 6.00 Build 0)  -->
<svg version="1.1" id="Layer_1" xmlns="http://www.w3.org/2000/svg" xmlns:xlink="http://www.w3.org/1999/xlink" x="0px" y="0px"
	 viewBox="0 0 900 900" style="enable-background:new 0 0 900 900;" xml:space="preserve">
<style type="text/css">
	.st0{fill:#DFDFDF;}
	.st1{fill:#0061F2;}
	.st2{fill:#207DED;}
	.st3{fill:#E49D75;}
	.st4{fill:#4E00A0;}
	.st5{fill:#6900C7;}
	.st6{fill:#8547D6;}
	.st7{fill:#594D43;}
	.st8{fill:#949494;}
</style>
<title>Artboard 1</title>
<g id="Layer_2_2_">
	<path class="st0" d="M354.7,189.4c0-46.9,38-84.9,84.9-84.9s84.9,38,84.9,84.9s-38,84.9-84.9,84.9l0,0
		C392.7,274.3,354.7,236.3,354.7,189.4L354.7,189.4z"/>
	<path d="M164,797.1l-24.7,14.6v3.6h48.3v-18.2L164,797.1z"/>
	<path d="M290.7,798.1h23.7v16.3h-23.7V798.1z"/>
	<path class="st0" d="M103,539.1l88.1,26.2l-15,50.6L88,589.7L103,539.1z"/>
	<path class="st1" d="M178.7,461.9l-15.9,336.8l26.8,0.2l54.8-220.4l-1.3-109.7L178.7,461.9z"/>
	<path class="st2" d="M317.5,461.2c-0.4,9.6-1.5,338.2-1.5,338.2l-26.1,0.2l-81.2-330.1C208.7,469.5,318,451.6,317.5,461.2z"/>
	<path class="st3" d="M154.7,368.7c-5.4,9.1-18.4,78.1-18.3,94.2c-4.2,14.5-0.8,57.9-0.7,63.7s-1,27.3,0.2,32.6
		c-3.3,8.4,13.3,25.7,18.4,26.2s11.1-8.5,11.1-12.8c0-10.9-7.1-20.2-7-24.7c0.7-22.6,10.5-80.1,11.7-84s5.4-11.4,8.9-14.5
		s5.2-70.2,5.2-70.2S157.6,363.8,154.7,368.7z"/>
	<path class="st3" d="M225.7,252.4c0,2.8,1.7,28.9-1.6,34.8s32.8,3.9,32.8-0.6s-1.2-25,1.7-32.5
		C261.6,246.7,225.7,249.6,225.7,252.4z"/>
	<path class="st3" d="M348.6,329.6l5.3,3.8c0,0,45.4-87.8,45.9-91s-3-11-2.5-14.7s18.8-21.8,24.5-22.1s6.2,2.5,4.8,5.3
		s-12.3,13.9-12.3,13.9s7.6-2.1,10.2,0s12.7,15.5,8.9,21.4s-11,8.8-12.4,12.3c-1.4,3.5-44.5,124.7-49.8,127.1
		c-8.9,4-37.8-10-42.1-16.9S348.6,329.6,348.6,329.6z"/>
	<path class="st4" d="M208.4,291.8c29.6,10.7,10.4,89.5,0.9,95c-7.5,4.3-61.9-12.8-63.8-21.1C142.8,353.5,182.6,282.5,208.4,291.8z"
		/>
	<path class="st5" d="M245.7,277.5c76.1-0.2,83.5,173.4,70.7,185.2c-23,21.4-133.6,11.8-138.5,0.5
		C170.1,444.6,173.8,277.8,245.7,277.5z"/>
	<path class="st6" d="M256.8,308.3c13.1-28.7,90.1-2.9,94.7,7c3.7,7.8-18,60.6-26.3,61.8C312.9,378.7,245.4,333.2,256.8,308.3z"/>
	<path class="st3" d="M212.5,215.3c0-24.9,15.4-45,34.4-45s34.4,20.2,34.4,45s-15.4,45.1-34.4,45.1S212.5,240.2,212.5,215.3z"/>
	<path class="st7" d="M201.2,209.5c-1.3-18.8,9.6-36.3,13.5-47.2c3.3-10.6,10-18.4,18.6-18.8s11,1.8,16.7,1.6s15.7-6.7,22.2-6.7
		s10.3,4.6,14.3,7.5s12.3,8.4,12.2,13.2c-0.2,28.9-26.6,26.2-34.3,34.5c-5.2,4.4-5.5,14.6-8.1,16.3s-8.3,0.7-8.4,8.9
		c-0.1,4.8,1.2,8.8,4.7,9.1c3.4,0.3,4.7,1.6,4.6,4.1c-0.7,24.2-17.8,28.8-24.8,28.1c-9.8-0.9-12.5-12.9-15-16.9
		C208.3,232.7,202,221.4,201.2,209.5z"/>
	<path class="st8" d="M435.5,193.1l12.7-54.2l12.7-54.2l24.6,12.9l24.6,12.9l-37.3,41.3L435.5,193.1z"/>
	<path class="st0" d="M566.2,109.2h244.2v150.2H566.2V109.2z"/>
	<path class="st8" d="M581,121.2h21.7v126H581V121.2z"/>
	<path class="st8" d="M613.1,139.5h21.7v107.8h-21.7V139.5z"/>
	<path class="st8" d="M645.3,167.2H667v80h-21.7V167.2z"/>
	<path class="st8" d="M677.5,204.8h21.7v42.4h-21.7V204.8z"/>
	<path class="st8" d="M709.7,168.4h21.7v78.9h-21.7V168.4z"/>
	<path class="st8" d="M741.8,140.9h21.7v106.4h-21.7V140.9z"/>
	<path class="st8" d="M774,121.2h21.7v126H774V121.2z"/>
</g>
</svg>
