<?xml version="1.0" encoding="utf-8"?>
<!-- Generator: Adobe Illustrator 24.0.3, SVG Export Plug-In . SVG Version: 6.00 Build 0)  -->
<svg version="1.1" id="Layer_1" xmlns="http://www.w3.org/2000/svg" xmlns:xlink="http://www.w3.org/1999/xlink" x="0px" y="0px"
	 viewBox="0 0 944.4 775.5" style="enable-background:new 0 0 944.4 775.5;" xml:space="preserve">
<style type="text/css">
	.st0{fill:#00BA94;}
	.st1{fill:none;stroke:#00A57E;stroke-width:4;stroke-linecap:round;stroke-miterlimit:10;}
	.st2{fill:#00A57E;}
	.st3{fill:none;stroke:#00BA94;stroke-width:4;stroke-linecap:round;stroke-linejoin:round;}
	.st4{fill:none;stroke:#6D6D6D;stroke-width:3;stroke-linecap:round;stroke-miterlimit:10;}
	.st5{fill:#333333;}
	.st6{fill:#F2B49C;}
	.st7{fill:#EA9600;}
	.st8{fill:#EA5F00;}
	.st9{fill:#F76400;}
	.st10{fill:#F4A100;}
	.st11{fill:none;stroke:#333333;stroke-width:7;stroke-linecap:round;stroke-miterlimit:10;}
	.st12{fill:#FFA80D;}
</style>
<title>hiker-man-colour</title>
<g id="Layer_2_1_">
	<g id="vector">
		<path class="st0" d="M730.9,496.4c-8.3-2.9-35.7-39-35.7-81.9c0-49.8,52.7-144.1,57.7-177.8c3.2-21.4,17.6-209.6,126.9-209.6
			c59.6,0,64.6,116.5,64.6,168.6c0,121.7-177,225.4-177,288.7C755.5,489.3,743.3,493.3,730.9,496.4z"/>
		<path class="st1" d="M744.4,491.9c0-97.6,72.8-275.5,136.9-338.1"/>
		<path class="st2" d="M323.7,687.4c-5.6-1.7-20.8-21-20.8-45.9c0-24,6.7-59,6.7-91.5c0-18.1-6.7-24.5-6.7-46
			c0-34.2,32.5-44.7,43.8-44.7c16.8,0,25.7,14.3,25.7,21.9c0,10.6-3,18.6-3,30.4c0,22.9,8,25.8,7.2,45.5
			c-2.5,57.7-26.5,114.1-47.5,126.9L323.7,687.4z"/>
		<path class="st0" d="M323.7,687.4c6.8-5.9-31.5-192.5-64.7-225.5c-36.1-35.9-65.9-54.9-75.7-66.7c-17.4-20.9-28.5-99.7-105.1-99.7
			c-20.3,0-68,16.8-76.6,87.6c-2.8,23.3-7.9,58.9,40.5,110.5c32.6,34.8,73.4,22.8,113.3,60.4c28.7,27.1,24.7,68,51.5,102.5
			C228.4,684.2,284.1,721.5,323.7,687.4z"/>
		<path class="st1" d="M314.3,691.9c0-46.8-147.7-258.2-206.8-288.4"/>
		<path class="st3" d="M323.7,687.4c-1.5-11.1-7.7-105.4,9.9-139.8"/>
		<path class="st4" d="M207,774c44.2-63.1,439.1-278.5,676.4-318.3"/>
		<path class="st0" d="M452.7,112.9h95.9c6.6,0,12,5.4,12,12v199c0,6.6-5.4,12-12,12h-95.9c-6.6,0-12-5.4-12-12v-199
			C440.7,118.3,446.1,112.9,452.7,112.9z"/>
		<path class="st5" d="M451,700.5v26h-70.6v-11l43.7-20.1L451,700.5z"/>
		<path class="st5" d="M604.2,675.6c3.6,8,12,28.7,12,28.7l-35.2,22.2H549l-3.7-12.2l40.1-30.7L604.2,675.6z"/>
		<ellipse class="st6" cx="482.1" cy="70.4" rx="29.8" ry="37.5"/>
		<path class="st6" d="M460.4,3.4c-3.9-5.4-14.9-4.2-24.6,2.8c-3.7,2.6-6.8,5.9-9.2,9.7c-0.3-0.1-0.7-0.2-1-0.2
			c-4.7,0-82.8,41.8-82.1,61.1s27,50.2,36.1,56.1c0,0,41.3-19.3,39.1-25.5s-26-26-30.2-29.9c4.9-2.6,44.1-41.4,48.5-45.8
			c4.6-1,9-3,12.9-5.8C459.7,18.8,464.4,8.8,460.4,3.4z"/>
		<path class="st7" d="M438,166.6c9-7.2-5.9-67.9-21.9-69.4s-43.8,28.6-42.7,37.1S415.3,184.9,438,166.6z"/>
		<path class="st8" d="M402.3,312c0,10,5,356,14,386c8,4,29,5,36,2s51.7-382.5,51.7-399.2S402.3,312,402.3,312z"/>
		<path class="st9" d="M581.6,687.2c-9.5-15-133.9-306.3-143.6-378.1c10.2-7.9,86.2-20.5,92.3-6.2s80,369.4,77.5,374
			S588.8,688.7,581.6,687.2z"/>
		<path class="st10" d="M482.5,119C547,119,543,297.5,529,308.5S405.5,320,398.5,312S375,119,482.5,119z"/>
		<path d="M529.5,57.7c0-7.6-7.3-13.1-7.3-17.3s2.5-11.8-3.1-17.2c-6.8-6.6-17.6-3.8-27.2-3.8c-9.1,0-14.1-10.6-26.5-10.6
			c-8.3,0-7.2,10.7-10.3,13.4c-2.3,2-20.1,5.8-20.1,14c0,9.1,0.2,21.4,19.2,21.4c1.3-4.4,6-14,11.4-18.3c2.8,1.2,18,7.5,21.8,8.6
			s9.3,17.3,15.1,19.2s6.2,12.7,10.5,12.2C517.2,78.8,529.5,77,529.5,57.7z"/>
		<circle class="st6" cx="507.8" cy="73.4" r="7.9"/>
		<path class="st6" d="M497,133c-1.3,4.4-27.7-0.9-27.2-5.8l4.5-43.7l31.9,6.9C506.2,90.3,498.3,128.7,497,133z"/>
		<line class="st11" x1="677.2" y1="156.4" x2="565.3" y2="710.9"/>
		<path class="st6" d="M659.2,309.4c-3-3-6.8-5-11-5.8c-13.3-21.5-58.7-87.9-78.7-112c-14.4,10.4-32,28.4-32,28.4
			c7.3,8.2,62.4,73.4,91.7,98.9c0,5.4,2.1,10.6,6,14.4c7.4,7.4,18.8,8.1,25.4,1.5S666.6,316.9,659.2,309.4z"/>
		<path class="st12" d="M507.9,148.2c25.9-19.2,68.5,27.3,67.8,39.5s-33.5,39.4-44.7,39.4C517.3,227.1,485.9,164.6,507.9,148.2z"/>
	</g>
</g>
</svg>
