<svg xmlns="http://www.w3.org/2000/svg" viewBox="0 0 677.86 696.85"><defs><style>.cls-1{fill:#f1f1f1;}.cls-2{fill:#e0e0e0;}.cls-3{fill:#e49d75;}.cls-4{fill:#ffc78e;}.cls-5,.cls-9{fill:none;stroke-miterlimit:10;stroke-width:3px;}.cls-5{stroke:#4fe0e0;}.cls-6{fill:#6bd5e1;}.cls-7{fill:#ffd98e;}.cls-8{fill:#fd8369;}.cls-9{stroke:#fd8369;stroke-linecap:round;}.cls-10{fill:#ffe4ad;}.cls-11{fill:#d38d6a;}</style></defs><title>mobile-post-colour</title><g id="Layer_2" data-name="Layer 2"><g id="vector"><path class="cls-1" d="M598.65,103.54A314.3,314.3,0,0,0,531,51.39V475.72C587.68,415,652.36,373.64,671.57,314.81,692.7,250.11,658.66,164.43,598.65,103.54Z"/><path class="cls-1" d="M155,625.73v-489C84.65,197.32,13.74,266.72,1.8,347.83-10.08,429.69,38,523.45,108.91,594.75a458,458,0,0,0,47.47,41.75A42.51,42.51,0,0,1,155,625.73Z"/><path class="cls-1" d="M205.07,668.17c47.88,25.89,96.82,36.73,137.12,22.1,13.25-4.85,25.56-12.46,37.24-22.1Z"/><path class="cls-2" d="M531,402.82V314.18c-60-5.24-122-8-185.51-8-65.22,0-128.91,2.9-190.49,8.43v88.2Z"/><path class="cls-3" d="M281.78,403.18c2.8-16.66,9-68.18-21.41-68.68-3,9.07-9.11,47.92-7.19,68.68Z"/><path class="cls-4" d="M301.27,267.5c29.92,6.41,17.3,69.36,12.24,79-9.94,7.93-45.83,3.29-58.65-11.76C252.94,327.18,268.89,260.56,301.27,267.5Z"/><rect class="cls-5" x="154.99" y="1.5" width="376" height="666" rx="42.45"/><path class="cls-6" d="M410.41,1.31A15.68,15.68,0,0,1,410.49,3V13A16.49,16.49,0,0,1,394,29.5H292A16.5,16.5,0,0,1,275.49,13V3c0-.51,0-1,.07-1.5"/><circle class="cls-7" cx="342.99" cy="630.42" r="19.22"/><circle class="cls-8" cx="198.82" cy="443.1" r="21.73"/><circle class="cls-8" cx="221.59" cy="521.77" r="12.24"/><line class="cls-9" x1="240.33" y1="434.06" x2="437.53" y2="434.06"/><line class="cls-9" x1="249.07" y1="521.77" x2="446.27" y2="521.77"/><line class="cls-9" x1="240.33" y1="452.34" x2="305.86" y2="452.34"/><path class="cls-1" d="M317.17,110.37H192.34s7.46-10.32,29.25-12.17,10.95-29.89,42.69-29.89,25.39,19,38.88,19S317.17,110.37,317.17,110.37Z"/><path class="cls-1" d="M407.78,124.87h86.11s-5.15-7.12-20.18-8.39-7.55-20.62-29.44-20.62S426.75,109,417.45,109,407.78,124.87,407.78,124.87Z"/><path class="cls-7" d="M408.73,403.18c3-34.43-1.52-151.36-62.33-151.36-62.31,0-81.44,79.51-74.36,151.36Z"/><path class="cls-3" d="M445.05,403.18c-1.8-16.56-12.46-63.35-16.22-71,0,0-43.37,8-43.37,10.88,0,2.53,10.59,46,15,60.13Z"/><path class="cls-10" d="M385,266.33c29-9.79,50.33,50.76,50.91,61.64-4.5,11.89-37.71,26.25-56.42,19.87C374,342.32,353.65,276.91,385,266.33Z"/><path class="cls-11" d="M365.69,210.93c-1.59,5.45-7.61,36.9-3.3,53.47-3.06,4.09-33.49,5.11-37.12.57,2-7.27,5.33-27.93,4-35.2S365.69,210.93,365.69,210.93Z"/><ellipse class="cls-3" cx="332.48" cy="198" rx="41.52" ry="47.5"/><path class="cls-8" d="M301.31,181.62c5.45.11,36.33-2.38,40.65-.45s5,10.1,13.62,10.9c6.46.59,11.91,12,17.05,18A53.89,53.89,0,0,0,374,198c0-26.23-18.58-47.5-41.51-47.5-16.93,0-31.48,11.59-37.94,28.21A10.57,10.57,0,0,0,301.31,181.62Z"/><ellipse class="cls-3" cx="367.27" cy="200.1" rx="10.62" ry="12.94"/><rect class="cls-5" x="154.99" y="403.18" width="376" height="189.33"/></g></g></svg>