<svg xmlns="http://www.w3.org/2000/svg" viewBox="0 0 900 900"><title>drawkit-folder-man</title><rect width="900" height="900" style="fill:#fff"/><rect x="778.39" y="715.76" width="20.09" height="15.66" style="fill:#de8e68"/><path d="M739.23,313.47c-2.26-1.7-19.46-26.28-23.8-43.74s-4.72,51.11-4.72,51.11l10.76,9.44Z" style="fill:#00844b"/><polygon points="736.96 565.81 713.61 606.67 707.77 479.7 744.98 480.92 736.96 565.81" style="fill:#0061f2"/><path d="M761.13,307c59.18,12.48,40.78,148.87,29.3,160s-96,13.24-104.17,3.9S686.86,291.26,761.13,307Z" style="fill:#00ac69"/><path d="M769.45,322.11c-.69,4.53-27.47,1.31-26.31-4.93L750,280.86l26.3,4.93S770.14,317.58,769.45,322.11Z" style="fill:#d37c59"/><ellipse cx="758.72" cy="262.9" rx="37.12" ry="26.71" transform="translate(360.61 960.25) rotate(-79.39)" style="fill:#de8e68"/><path d="M738.77,202.58c7,0,10,4.8,28.09,4.8,8.82,0,26.73,1.88,26.73,24.67,0,15.31,8.91,16.45,8.91,26.05,0,4.79-4.24,16.44-15.08,16.44-4.79,0-9.59-8.22-9.59-11s2.74-4.8,2.74-6.86c.06-9.9-32-15.4-34.16-24.31-2.33,2.13-7.67,8.7-9.67,13-2.74-1.41-2.42-3.69-5.48-5.78-2.64-1.79-10.86-6.37-10.86-15.48C720.36,219.58,725.09,202.58,738.77,202.58Z"/><circle cx="781.56" cy="269.73" r="8.59" style="fill:#de8e68"/><polygon points="788.6 468.35 802.01 717.15 777.48 717.15 712.2 483.5 712.2 469.26 788.6 468.35" style="fill:#207ded"/><rect x="96.26" y="202.86" width="619.92" height="457.46" style="fill:#dfdfdf"/><rect x="96.26" y="256.55" width="619.92" height="457.46" style="fill:#f3f3f3"/><path d="M747.57,378.42c-5.69,2.94-14,7.16-19.65,18.37-7.17-1.29-42.8-7.72-68.33-7.35-2.39,5.14-6.43,13.23-4.8,14.33s54,23,90.74,19.65c4.8.34,24.1-17.82,24.72-19.29S747.57,378.42,747.57,378.42Z" style="fill:#de8e68"/><ellipse cx="647.05" cy="394.01" rx="11.15" ry="16.63" transform="translate(88.52 905.83) rotate(-73.84)" style="fill:#de8e68"/><ellipse cx="662.82" cy="178.02" rx="17.66" ry="15.11" style="fill:#de8e68"/><polygon points="476.56 345.06 249.21 345.06 249.21 714 560.14 714 560.14 428.65 476.56 345.06" style="fill:#dfdfdf"/><circle cx="333.64" cy="486.04" r="36.09" style="fill:#fff"/><rect x="389.13" y="513.85" width="122.68" height="9.7" style="fill:#fff"/><rect x="297.55" y="557.22" width="214.26" height="9.7" style="fill:#fff"/><rect x="297.55" y="600.58" width="214.26" height="9.7" style="fill:#fff"/><rect x="494.3" y="171.91" width="221.88" height="102.64" rx="16.82" style="fill:#f3f3f3"/><path d="M494.3,188.73c0,7.75-23.88,67.84-151,67.84,0,13,157.7,6.43,157.7,6.43l2.33-73Z" style="fill:#f3f3f3"/><path d="M801.47,344.58c15.77,17.76-23,68.83-30.42,66.72-8.79-2.48-35.55-27.53-35.76-36.2S782,322.68,801.47,344.58Z" style="fill:#2aba6e"/><polygon points="778.39 727.33 778.39 740.1 809.88 780.09 819.29 775.51 800.01 727.33 778.39 727.33"/></svg>